<?xml version="1.0" standalone="no"?><!DOCTYPE svg PUBLIC "-//W3C//DTD SVG 1.1//EN" "http://www.w3.org/Graphics/SVG/1.1/DTD/svg11.dtd"><svg t="1643788915193" class="icon" viewBox="0 0 1024 1024" version="1.1" xmlns="http://www.w3.org/2000/svg" p-id="7569" xmlns:xlink="http://www.w3.org/1999/xlink" width="200" height="200"><defs><style type="text/css"></style></defs><path d="M554.666667 968.08a52.986667 52.986667 0 0 1-37.713334-15.62l-416-416A52.986667 52.986667 0 0 1 85.333333 498.746667V138.666667a53.393333 53.393333 0 0 1 53.333334-53.333334h360.08a52.986667 52.986667 0 0 1 37.713333 15.62l416 416a53.4 53.4 0 0 1 0 75.426667l-360.08 360.08a52.986667 52.986667 0 0 1-37.713333 15.62zM138.666667 128a10.666667 10.666667 0 0 0-10.666667 10.666667v360.08a10.573333 10.573333 0 0 0 3.126667 7.54l416 416a10.666667 10.666667 0 0 0 15.08 0l360.08-360.08a10.666667 10.666667 0 0 0 0-15.08l-416-416a10.573333 10.573333 0 0 0-7.54-3.126667z m224 341.333333c-58.813333 0-106.666667-47.853333-106.666667-106.666666s47.853333-106.666667 106.666667-106.666667 106.666667 47.853333 106.666666 106.666667-47.853333 106.666667-106.666666 106.666666z m0-170.666666a64 64 0 1 0 64 64 64.073333 64.073333 0 0 0-64-64z"  p-id="7570"></path></svg>